# xmcd
#
# Track frame offsets:
#	187
#	17094
#	29402
#	45309
#	56679
#	67002
#	93959
#	107329
#	129932
#	141462
#	173909
#
# Disc length: 2540 seconds
#
# Revision: 2
# Processed by: cddbd v1.5.2PL0 Copyright (c) Steve Scherf et al.
# Submitted via: VUPlayer 2.49
#
DISCID=8f09ea0b
DTITLE=Joe Hisaishi - Hanabi
DYEAR=1998
DGENRE=Soundtrack
TTITLE0=Hanabi
TTITLE1=Angel
TTITLE2=Sea of Blue
TTITLE3=and Alone
TTITLE4=Ever Love
TTITLE5=Painters
TTITLE6=Smile and Smile
TTITLE7=Heaven's Gate
TTITLE8=Tenderness
TTITLE9=Thank You... for Everything
TTITLE10=Hanabi (Reprise)
EXTD=
EXTT0=
EXTT1=
EXTT2=
EXTT3=
EXTT4=
EXTT5=
EXTT6=
EXTT7=
EXTT8=
EXTT9=
EXTT10=
PLAYORDER=
